<svg xmlns="http://www.w3.org/2000/svg" width="174" height="21" fill="none"><path fill="#50806B" d="M14.43 7.312a4.261 4.261 0 0 0-1.716-1.742c-.728-.399-1.577-.598-2.548-.598-1.075 0-2.028.243-2.86.728-.832.485-1.482 1.179-1.95 2.08-.468.901-.702 1.941-.702 3.12 0 1.213.234 2.27.702 3.172.485.901 1.153 1.595 2.002 2.08.85.485 1.837.728 2.964.728 1.387 0 2.522-.364 3.406-1.092.884-.745 1.465-1.777 1.742-3.094H9.23V9.912h9.828v3.172a8.527 8.527 0 0 1-1.56 3.51c-.797 1.075-1.829 1.941-3.094 2.6-1.248.641-2.652.962-4.212.962-1.75 0-3.337-.39-4.758-1.17a8.82 8.82 0 0 1-3.328-3.302C1.309 14.28.91 12.685.91 10.9c0-1.785.399-3.38 1.196-4.784a8.58 8.58 0 0 1 3.328-3.302c1.421-.797 2.999-1.196 4.732-1.196 2.045 0 3.822.503 5.33 1.508 1.508.988 2.548 2.383 3.12 4.186H14.43Zm10.361.52a5.152 5.152 0 0 1 1.82-1.794c.763-.433 1.63-.65 2.6-.65V9.21h-.962c-1.144 0-2.01.269-2.6.806-.572.537-.858 1.473-.858 2.808V20h-3.64V5.596h3.64v2.236Zm19.662 4.654c0 .52-.035.988-.104 1.404h-10.53c.086 1.04.45 1.855 1.092 2.444.641.59 1.43.884 2.366.884 1.352 0 2.314-.58 2.886-1.742h3.926c-.416 1.387-1.214 2.53-2.392 3.432-1.179.884-2.626 1.326-4.342 1.326-1.387 0-2.635-.303-3.744-.91a6.697 6.697 0 0 1-2.574-2.626c-.607-1.127-.91-2.427-.91-3.9 0-1.49.303-2.8.91-3.926a6.35 6.35 0 0 1 2.548-2.6c1.092-.607 2.348-.91 3.77-.91 1.37 0 2.591.295 3.666.884a6.097 6.097 0 0 1 2.522 2.522c.606 1.075.91 2.314.91 3.718Zm-3.77-1.04c-.018-.936-.356-1.681-1.014-2.236-.659-.572-1.465-.858-2.418-.858-.902 0-1.664.277-2.288.832-.607.537-.98 1.291-1.118 2.262h6.838Zm19.217 1.04c0 .52-.035.988-.104 1.404h-10.53c.086 1.04.45 1.855 1.092 2.444.641.59 1.43.884 2.366.884 1.352 0 2.314-.58 2.886-1.742h3.926c-.416 1.387-1.214 2.53-2.392 3.432-1.179.884-2.626 1.326-4.342 1.326-1.387 0-2.635-.303-3.744-.91a6.697 6.697 0 0 1-2.574-2.626c-.607-1.127-.91-2.427-.91-3.9 0-1.49.303-2.8.91-3.926a6.35 6.35 0 0 1 2.548-2.6c1.092-.607 2.348-.91 3.77-.91 1.369 0 2.591.295 3.666.884a6.098 6.098 0 0 1 2.522 2.522c.606 1.075.91 2.314.91 3.718Zm-3.77-1.04c-.018-.936-.356-1.681-1.014-2.236-.659-.572-1.465-.858-2.418-.858-.902 0-1.664.277-2.288.832-.607.537-.98 1.291-1.118 2.262h6.838Zm13.809-6.058c1.716 0 3.102.546 4.16 1.638 1.057 1.075 1.585 2.583 1.585 4.524V20h-3.64v-7.956c0-1.144-.285-2.02-.858-2.626-.572-.624-1.352-.936-2.34-.936-1.005 0-1.802.312-2.392.936-.572.607-.857 1.482-.857 2.626V20h-3.64V5.596h3.64V7.39a4.935 4.935 0 0 1 1.846-1.456 5.72 5.72 0 0 1 2.496-.546Z"/><path fill="#000" d="M96.491 1.852V4.79h-4.836V20h-3.64V4.79H83.18V1.852h13.312Zm10.168 3.536c1.092 0 2.063.243 2.912.728.849.468 1.508 1.17 1.976 2.106.485.919.728 2.028.728 3.328V20h-3.64v-7.956c0-1.144-.286-2.02-.858-2.626-.572-.624-1.352-.936-2.34-.936-1.005 0-1.803.312-2.392.936-.572.607-.858 1.482-.858 2.626V20h-3.64V.76h3.64v6.63c.468-.624 1.092-1.11 1.872-1.456.78-.364 1.647-.546 2.6-.546Zm22.076.208V20h-3.666v-1.82c-.468.624-1.084 1.118-1.846 1.482-.746.347-1.56.52-2.444.52-1.127 0-2.124-.234-2.99-.702-.867-.485-1.552-1.187-2.054-2.106-.486-.936-.728-2.045-.728-3.328v-8.45h3.64v7.93c0 1.144.286 2.028.858 2.652.572.607 1.352.91 2.34.91 1.005 0 1.794-.303 2.366-.91.572-.624.858-1.508.858-2.652v-7.93h3.666Zm20.879-.208c1.768 0 3.189.546 4.264 1.638 1.092 1.075 1.638 2.583 1.638 4.524V20h-3.64v-7.956c0-1.127-.286-1.985-.858-2.574-.572-.607-1.352-.91-2.34-.91-.988 0-1.777.303-2.366.91-.572.59-.858 1.447-.858 2.574V20h-3.64v-7.956c0-1.127-.286-1.985-.858-2.574-.572-.607-1.352-.91-2.34-.91-1.005 0-1.803.303-2.392.91-.572.59-.858 1.447-.858 2.574V20h-3.64V5.596h3.64v1.742a4.87 4.87 0 0 1 1.794-1.43 5.722 5.722 0 0 1 2.444-.52c1.127 0 2.132.243 3.016.728a4.927 4.927 0 0 1 2.054 2.028c.468-.832 1.144-1.5 2.028-2.002a5.882 5.882 0 0 1 2.912-.754Zm12.396 2.314c.468-.693 1.11-1.257 1.924-1.69.832-.433 1.777-.65 2.834-.65 1.231 0 2.34.303 3.328.91 1.006.607 1.794 1.473 2.366 2.6.59 1.11.884 2.4.884 3.874 0 1.473-.294 2.782-.884 3.926-.572 1.127-1.36 2.002-2.366 2.626-.988.624-2.097.936-3.328.936-1.074 0-2.019-.208-2.834-.624-.797-.433-1.438-.988-1.924-1.664V20h-3.64V.76h3.64v6.942Zm7.618 5.044c0-.867-.182-1.612-.546-2.236-.346-.641-.814-1.127-1.404-1.456a3.687 3.687 0 0 0-1.872-.494c-.658 0-1.282.173-1.872.52-.572.33-1.04.815-1.404 1.456-.346.641-.52 1.395-.52 2.262s.174 1.62.52 2.262c.364.641.832 1.135 1.404 1.482.59.33 1.214.494 1.872.494.676 0 1.3-.173 1.872-.52a3.728 3.728 0 0 0 1.404-1.482c.364-.641.546-1.404.546-2.288Z"/></svg>