<svg width="30" height="30" viewBox="0 0 30 30" xmlns="http://www.w3.org/2000/svg">
<path d="M4.6875 22.5C4.41667 22.5 4.19271 22.4115 4.01563 22.2344C3.83854 22.0573 3.75 21.8333 3.75 21.5625C3.75 21.2917 3.83854 21.0677 4.01563 20.8906C4.19271 20.7135 4.41667 20.625 4.6875 20.625H25.3125C25.5833 20.625 25.8073 20.7135 25.9844 20.8906C26.1615 21.0677 26.25 21.2917 26.25 21.5625C26.25 21.8333 26.1615 22.0573 25.9844 22.2344C25.8073 22.4115 25.5833 22.5 25.3125 22.5H4.6875ZM4.6875 15.9375C4.41667 15.9375 4.19271 15.849 4.01563 15.6719C3.83854 15.4948 3.75 15.2708 3.75 15C3.75 14.7292 3.83854 14.5052 4.01563 14.3281C4.19271 14.151 4.41667 14.0625 4.6875 14.0625H25.3125C25.5833 14.0625 25.8073 14.151 25.9844 14.3281C26.1615 14.5052 26.25 14.7292 26.25 15C26.25 15.2708 26.1615 15.4948 25.9844 15.6719C25.8073 15.849 25.5833 15.9375 25.3125 15.9375H4.6875ZM4.6875 9.375C4.41667 9.375 4.19271 9.28646 4.01563 9.10937C3.83854 8.93229 3.75 8.70833 3.75 8.4375C3.75 8.16667 3.83854 7.94271 4.01563 7.76563C4.19271 7.58854 4.41667 7.5 4.6875 7.5H25.3125C25.5833 7.5 25.8073 7.58854 25.9844 7.76563C26.1615 7.94271 26.25 8.16667 26.25 8.4375C26.25 8.70833 26.1615 8.93229 25.9844 9.10937C25.8073 9.28646 25.5833 9.375 25.3125 9.375H4.6875Z" fill="currentColor"/>
</svg>
