<svg width="50" height="50" viewBox="0 0 50 50" xmlns="http://www.w3.org/2000/svg">
    <path d="M18.4374 36.3543C18.1596 36.007 18.0121 35.6251 17.9947 35.2084C17.9773 34.7918 18.1249 34.4272 18.4374 34.1147L27.6041 24.948L18.3853 15.7293C18.1075 15.4515 17.9773 15.0782 17.9947 14.6095C18.0121 14.1407 18.1596 13.7675 18.4374 13.4897C18.7846 13.1425 19.1579 12.9775 19.5572 12.9949C19.9565 13.0123 20.3124 13.1772 20.6249 13.4897L30.9895 23.8543C31.1631 24.0279 31.2846 24.2015 31.3541 24.3751C31.4235 24.5487 31.4582 24.7397 31.4582 24.948C31.4582 25.1564 31.4235 25.3473 31.3541 25.5209C31.2846 25.6945 31.1631 25.8682 30.9895 26.0418L20.677 36.3543C20.3645 36.6668 19.9999 36.8143 19.5832 36.797C19.1666 36.7796 18.7846 36.632 18.4374 36.3543Z" fill="currentColor"/>
</svg>
