<svg width="50" height="50" viewBox="0 0 50 50" xmlns="http://www.w3.org/2000/svg">
    <path d="M31.5625 36.3543C31.8403 36.007 31.9878 35.6251 32.0052 35.2084C32.0225 34.7918 31.875 34.4272 31.5625 34.1147L22.3958 24.948L31.6146 15.7293C31.8923 15.4515 32.0225 15.0782 32.0052 14.6095C31.9878 14.1407 31.8403 13.7675 31.5625 13.4897C31.2153 13.1425 30.842 12.9775 30.4427 12.9949C30.0434 13.0123 29.6875 13.1772 29.375 13.4897L19.0104 23.8543C18.8368 24.0279 18.7153 24.2015 18.6458 24.3751C18.5764 24.5487 18.5416 24.7397 18.5416 24.948C18.5416 25.1564 18.5764 25.3473 18.6458 25.5209C18.7153 25.6945 18.8368 25.8682 19.0104 26.0418L29.3229 36.3543C29.6354 36.6668 30 36.8143 30.4166 36.797C30.8333 36.7796 31.2153 36.632 31.5625 36.3543Z" fill="currentColor"/>
</svg>
